<?xml version="1.0" encoding="UTF-8"?>
<svg id="Layer_1" xmlns="http://www.w3.org/2000/svg" version="1.1" viewBox="0 0 565.06 374.96">
  <!-- Generator: Adobe Illustrator 30.4.0, SVG Export Plug-In . SVG Version: 2.1.4 Build 226)  -->
  <defs>
    <style>
      .st0 {
        fill: #829ab0;
      }
    </style>
  </defs>
  <path class="st0" d="M272.18,95.7c-6.1-15.92-16.97-17.69-28.57-27.4-2.01,2.81-4.94,6.06-6.46,9.27-3.09,6.5-4.13,13.04-6.14,20.26l-11.48-8.46-5.22,11.15c-.52,1.12,1.32,3.73,2.13,4.69l9.55,11.71-4.05,6.82-9.19-10.55c-3.97-4.57-7.38-9.75-12.04-13.84l-6.58-5.74c-3.05,3.17-3.21,7.62-6.9,12.07l1.04,6.46-8.95,7.18-5.98.6-7.18,1.56c-4.33,2.97-7.34,7.62-10.27,11.95-3.33,4.97-6.22,9.47-8.91,15.16l7.26.16,11.44,2.69-9.35,7.78c.44,1.64-1.12,4.97-2.97,4.65-1.85-.32-2.69-.32-4.29-.08l-2.89-.56c-.72-.12-1.81,1.4-2.53,2.41l-4.41-.84c-6.34,2.77-16.69,9.39-16.09,14.64-3.25,2.49-7.98,3.29-12.52,2.53.2-1.85,1-4.65,2.01-5.7l3.37-3.53c-10.99-2.13-12.92,9.35-18.3,9.95-4.98.56-9.75.28-14.57-.12l-10.51,3.17c-2.09.92-3.89,1.56-6.38,1.85l4.25-4.93c1.81-2.13,4.94-3.37,7.18-5.01,1.93-1.44,3.17-3.57,5.82-4.21,2.29-.56,4.73-1.52,6.58-2.73l13.2-8.62,4.37-4.01,9.19-6.02c4.37-2.85,9.23-4.45,13.6-7.34,2.93-1.97,4.49-5.41,6.62-7.78l7.62-8.46c1.04-1.16,3.45-1.85,5.62-2.21l2.33-3.93c3.45-.68,4.77-2.61,6.5-5.17,1.73-2.57,3.37-4.85,4.53-7.7,1.32-3.17,2.73-6.78,5.38-9.02,5.1-4.29,10.59-8.22,14.2-13.84l6.1-9.51c5.78,5.09,7.9,11.35,12.84,15.92,6.78-5.94,12.24-11.43,18.18-17.73l24.56-25.95,6.9,6.1c3.77-3.37,7.14-6.26,9.47-10.47,1.12-2.01,1.93-4.93,3.49-6.5l6.14-6.22,4.13-3.81,9.39-8.9,4.69,4.33,10.63,12.51c2.41,2.85,4.98,6.38,8.19,8.22s6.54,3.49,8.02,7.26c2.89,7.26,7.38,13.24,12.52,19.09,2.65,3.05,4.69,6.14,7.82,9.27,6.38-5.41,10.71-11.99,16.57-17.93l5.54-5.62,8.35,12.15c3.61,5.25,8.11,9.47,12.64,14.04,3.57,3.65,4.81,9.02,7.58,13.32,5.86,9.15,13.36,16.73,20.22,25.11,1.85,2.29,2.65,5.98,5.3,7.7l13.28,8.54,9.11,7.22,10.95,9.35c4.21,3.57,8.35,5.86,13.28,8.5,3.57,1.93,7.06,5.62,10.03,8.46l13.88,13.28c-.64.12-3.73.4-4.73-.12l-9.63-5.41c-3.93-2.21-6.7-6.98-10.99-8.22-6.5.2-12.36-1.56-17.13-6.3-2.61-2.61-5.74-4.73-8.79-6.94l-7.1-5.17c-3.41-2.49-6.1-5.58-8.19-9.19-.6-5.33-3.69-9.47-8.43-11.67l-16.85-18.61-2.89,8.26c-4.77-6.86-7.38-13.76-10.99-21.02-4.13-8.46-9.67-15.92-15.45-23.38-.96-1.24-3.69-1.72-4.49-.64l-5.34,7.18c-1.89,2.53-3.57,4.33-6.66,6.38l5.22,3.93c1.32,1.97,3.13,3.21,4.61,4.89,10.11,11.47,19.58,23.06,28.65,35.38l13.68,20.38,1.89,8.86-6.7-4.17-8.67-13c-6.82-5.33-13.96-10.55-18.3-18.45l-1.89-8.86-10.27-1.89c-3.53-3.57-6.7-7.46-10.63-10.31-4.41-3.21-7.46-6.66-8.99-12.07-1.08-3.85-3.49-6.78-6.02-9.71l-13.56-15.56,1.77,12.88c1,7.14,10.51,10.15,6.94,16-1.12,1.85-5.26,3.41-7.1,1.56-2.85-2.89-4.61-7.26-7.58-9.79l-25.16-21.22-13.04,1.93c7.94,9.39,14.16,19.21,22.43,27.72,5.7,5.86,11.03,10.95,15.37,17.85,2.97,4.77,7.74,7.86,10.35,13.2-3.25-.84-6.22-2.05-8.63-3.37-2.73-4.09-5.98-7.42-10.27-9.99l-21.27-12.55c-2.97-1.76-4.98-4.33-6.18-7.5l.12.08Z"/>
  <path class="st0" d="M250.7,213.31l-24.92-5.66-30.58-7.82c-2.65-.68-11.72-6.66-10.67-9.99.68-2.21,12.96,4.85,20.95,5.9.52-2.37.92-4.13,1.77-4.89,2.37-2.29,8.43,3.65,9.27,1.2l4.73-13.52c2.89-4.53,7.7-8.46,11.84-11.67,2.97.2,5.82.24,8.47-.2l2.21-.36c.44-.08,0-2.09-.32-2.57l-4.73-7.78c-5.58,3.21-11.03,5.01-16.73,7.82l-6.5,3.21c-3.81,1.89-6.66,3.81-11.36,3.37l-1.24,4.05c-2.41-1.16-4.05-3.73-3.49-5.9,7.5-4.41,14.36-9.02,21.07-14.4l4.81-2.37c1.89-.92,3.81-2.81,5.62-3.69l13.52-6.54c-1.73-4.97-1.32-10.31,3.17-13,2.85-1.68,7.5-1.04,9.91,1.32,3.01,2.97,2.65,7.7,2.81,11.75,3.69,1.52,8.07,3.25,10.39,6.78l6.66,10.03.76,3.53c2.85,3.49,5.62,6.94,7.78,10.87,3.77,6.9,6.62,6.94,7.1,10.71.2,1.6-1.04,4.61-2.77,4.49-2.73-1.44-4.21-4.69-6.18-6.78l-5.66-5.9-6.54-7.58.16,7.5c.12,5.29-5.06,7.98-9.55,9.19l-4.45,1.2-2.49,8.38c-.72,2.45-2.09,4.49-4.05,5.94l-1.89,5.17c7.3,1.85,14.61,3.13,22.39,3.29,3.45.08,7.18,3.37,6.18,7.02-5.98,4.81-18.02,0-27.41-2.13h-.04ZM236.01,202.32c.32-2.89,1.16-5.7,2.57-5.94l4.25-.84c-.2-5.5,0-9.35.68-14.48-3.29.56-7.18,1.68-10.15,2.93-2.29,5.62-7.66,8.58-9.55,15.36l12.2,2.97Z"/>
  <g>
    <path class="st0" d="M64.54,361.65h-2.47c-1.98,0-3.13-.82-3.63-2.97l-5.77-26.72h-31.17l-5.77,26.72c-.33,2.14-1.65,2.97-3.63,2.97h-1.98c-2.31,0-3.3-1.32-2.97-3.79l24.41-108.68c.33-2.14,1.65-2.97,3.63-2.97h3.96c1.98,0,3.3.83,3.63,2.97l24.74,108.68c.49,2.47-.66,3.79-2.97,3.79ZM50.85,323.88l-13.69-63.66-13.85,63.66h27.54Z"/>
    <path class="st0" d="M89.45,361.65h-2.15c-2.14,0-3.46-1.15-3.46-3.3v-108.84c0-2.15,1.32-3.3,3.46-3.3h2.15c2.14,0,3.3,1.15,3.3,3.3v108.84c0,2.14-1.15,3.3-3.3,3.3Z"/>
    <path class="st0" d="M168.78,361.65h-2.64c-1.81,0-3.13-.82-3.79-2.81l-17.97-47h-20.12v46.51c0,2.14-1.15,3.3-3.3,3.3h-2.14c-2.15,0-3.47-1.15-3.47-3.3v-108.84c0-2.15,1.32-3.3,3.47-3.3h23.75c17.48,0,26.39,8.25,26.39,24.41v16.82c0,12.54-5.28,20.29-15.83,23.09l18.31,47.16c.82,2.31-.17,3.96-2.64,3.96ZM160.04,284.63v-11.05c0-13.69-5.11-19.13-18.14-19.13h-17.65v49.31h17.65c13.03,0,18.14-5.61,18.14-19.13Z"/>
    <path class="st0" d="M227,242.09l-37.27,124.68c-.5,1.98-1.82,2.8-3.79,2.8h-1.15c-2.31,0-3.46-1.48-2.8-3.79l37.27-124.67c.5-1.98,1.82-2.81,3.79-2.81h1.32c2.31,0,3.3,1.49,2.64,3.79Z"/>
    <path class="st0" d="M263.12,242.09l-37.27,124.68c-.49,1.98-1.81,2.8-3.79,2.8h-1.15c-2.31,0-3.46-1.48-2.8-3.79l37.27-124.67c.5-1.98,1.81-2.81,3.79-2.81h1.32c2.31,0,3.3,1.49,2.64,3.79Z"/>
    <path class="st0" d="M322.99,286.12h-2.14c-1.98,0-3.3-1.32-3.3-3.46v-11.38c0-12.7-4.62-18.3-16.98-18.3s-16.99,5.61-16.99,18.3v8.08c0,8.58,2.97,10.89,11.71,15.5l17.65,9.73c8.08,4.29,13.85,10.72,13.85,19.46v14.84c0,16.49-8.41,24.08-25.89,24.08h-.33c-17.48,0-25.89-7.42-25.89-24.08v-15.34c0-2.14,1.32-3.46,3.46-3.46h2.14c1.98,0,3.3,1.32,3.3,3.46v12.7c0,12.53,4.62,18.63,17.15,18.63s17.15-6.1,17.15-18.63v-9.23c0-8.58-3.46-11.55-12.21-16.49l-17.31-9.4c-9.57-5.45-13.69-9.9-13.69-19.13v-13.36c0-15.83,9.89-23.74,25.73-23.74h.33c15.83,0,25.73,7.91,25.73,23.74v14.02c0,2.15-1.32,3.46-3.47,3.46Z"/>
    <path class="st0" d="M349.39,246.21h2.14c2.14,0,3.3,1.15,3.3,3.3v49.31h37.1v-49.31c0-2.15,1.16-3.3,3.3-3.3h2.14c2.14,0,3.46,1.15,3.46,3.3v108.84c0,2.14-1.32,3.3-3.46,3.3h-2.14c-2.14,0-3.3-1.15-3.3-3.3v-51.29h-37.1v51.29c0,2.14-1.15,3.3-3.3,3.3h-2.14c-2.14,0-3.46-1.15-3.46-3.3v-108.84c0-2.15,1.32-3.3,3.46-3.3Z"/>
    <path class="st0" d="M428.88,361.65h-2.14c-2.14,0-3.46-1.15-3.46-3.3v-108.84c0-2.15,1.32-3.3,3.46-3.3h2.14c2.15,0,3.3,1.15,3.3,3.3v108.84c0,2.14-1.15,3.3-3.3,3.3Z"/>
    <path class="st0" d="M454.78,358.35v-108.84c0-2.15,1.32-3.3,3.46-3.3h37.77c2.14,0,3.46,1.15,3.46,3.3v1.48c0,2.15-1.32,3.46-3.46,3.46h-32.33v45.35h27.21c2.14,0,3.46,1.32,3.46,3.46v1.32c0,2.14-1.32,3.46-3.46,3.46h-27.21v50.3c0,2.14-1.15,3.3-3.3,3.3h-2.14c-2.14,0-3.46-1.15-3.46-3.3Z"/>
    <path class="st0" d="M557.2,249.51v1.48c0,2.15-1.32,3.46-3.46,3.46h-18.3v103.9c0,2.14-1.32,3.3-3.46,3.3h-2.14c-2.15,0-3.3-1.15-3.3-3.3v-103.9h-18.3c-2.14,0-3.46-1.32-3.46-3.46v-1.48c0-2.15,1.32-3.3,3.46-3.3h45.52c2.14,0,3.46,1.15,3.46,3.3Z"/>
  </g>
</svg>